<?xml version="1.0" encoding="UTF-8"?>
<svg id="Warstwa_3" data-name="Warstwa 3" xmlns="http://www.w3.org/2000/svg" xmlns:xlink="http://www.w3.org/1999/xlink" viewBox="0 0 1036.49 759.21">
  <defs>
    <style>
      .cls-1 {
        fill: #07c;
      }

      .cls-2 {
        filter: url(#drop-shadow-4);
      }

      .cls-3 {
        stroke-width: 15px;
      }

      .cls-3, .cls-4, .cls-5, .cls-6 {
        fill: none;
        stroke: #07c;
        stroke-miterlimit: 10;
      }

      .cls-4 {
        filter: url(#drop-shadow-1);
        stroke-width: 10px;
      }

      .cls-5 {
        filter: url(#drop-shadow-3);
      }

      .cls-5, .cls-6 {
        stroke-width: 6px;
      }

      .cls-6 {
        filter: url(#drop-shadow-2);
      }
    </style>
    <filter id="drop-shadow-1" x="218" y="115.81" width="605" height="346" filterUnits="userSpaceOnUse">
      <feOffset dx="7" dy="7"/>
      <feGaussianBlur result="blur" stdDeviation="8"/>
      <feFlood flood-color="#073e59" flood-opacity=".49"/>
      <feComposite in2="blur" operator="in"/>
      <feComposite in="SourceGraphic"/>
    </filter>
    <filter id="drop-shadow-2" x="388" y="405.81" width="265" height="102" filterUnits="userSpaceOnUse">
      <feOffset dx="7" dy="7"/>
      <feGaussianBlur result="blur-2" stdDeviation="8"/>
      <feFlood flood-color="#073e59" flood-opacity=".49"/>
      <feComposite in2="blur-2" operator="in"/>
      <feComposite in="SourceGraphic"/>
    </filter>
    <filter id="drop-shadow-3" x="247" y="469.81" width="547" height="111" filterUnits="userSpaceOnUse">
      <feOffset dx="7" dy="7"/>
      <feGaussianBlur result="blur-3" stdDeviation="8"/>
      <feFlood flood-color="#073e59" flood-opacity=".49"/>
      <feComposite in2="blur-3" operator="in"/>
      <feComposite in="SourceGraphic"/>
    </filter>
    <filter id="drop-shadow-4" x="281" y="177.81" width="492" height="219" filterUnits="userSpaceOnUse">
      <feOffset dx="7" dy="7"/>
      <feGaussianBlur result="blur-4" stdDeviation="8"/>
      <feFlood flood-color="#094468" flood-opacity=".49"/>
      <feComposite in2="blur-4" operator="in"/>
      <feComposite in="SourceGraphic"/>
    </filter>
  </defs>
  <path class="cls-1" d="M235.53,86.15c-19.08-5-45.21-10.24-61.4,3.59-5.1,4.44-7.97,10.37-9.96,16.91-2.06,6.84-3.26,14.28-4.24,21.78-4.05,35.58-5.17,79.56-7.28,115.72-.99,14.68-.81,33.59-5.13,47.79-9.14,33.25-40.39,54.73-73.35,59.81-.45.06-1.34.18-1.79.23,0,0,6.78-7.33,6.78-7.33-.04,1.16-.09,5.62-.13,6.88-.43.22-5.19,2.05-5.6,2.25,0,0,4.73-7.11,4.73-7.11l.33,18.24-6.78-7.33c10.49,1.31,20.56,4.45,30.15,8.86,27.78,12.75,45.61,37.03,48.79,67.57.88,7.16.79,15.11,1.07,22.34,1.18,33.37,2.8,67.25,8.12,100.1,1.57,9.24,3.42,18.37,6.16,27.3,4.03,12.72,8.94,24.42,20.09,31.22,1.96,1.33,6.73,2.23,11.19,2.96,4.56.71,9.29,1.3,14.01,1.81,42.62,4.68,85.75,3.34,128.3-2.53,0,0,2.06,14.86,2.06,14.86-38.77,5.35-78.16,7.05-117.33,3.96-9.89-.81-19.53-1.76-29.41-3.28-4.72-.81-9.74-1.6-14.29-3.7-15.77-7.9-24.19-24.86-28.97-40.89-8.36-28.41-10.72-58.4-12.88-87.62-1.08-16.95-1.81-34.01-2.26-50.98-.11-5.65-.37-11.55-1.17-17.14-2.16-14.02-8.14-27.4-18.28-37.48-13.89-13.96-33.9-21.72-53.47-23.13-.16-7.43-.39-22.57-.55-30.03.71-.33,5.16-2.05,5.74-2.31,0,0-4.69,6.82-4.69,6.82,0,0,.03-1.91.03-1.91,0,0,.12-6.52.12-6.52.91-.08,7.1-.88,7.77-.94,6.61-.96,13.13-2.78,19.35-5.19,19.83-7.48,36.69-23.09,42.55-43.77,3.91-12.14,4-31.68,5.02-44.59,1.71-27.16,3.75-66.22,5.97-93.1,1.48-15.96,2.69-31.63,7.38-47.31,8.62-29.4,34.95-36.92,62.74-32.98,8.08,1.07,15.93,2.89,23.61,5.06,0,0-3.15,11.1-3.15,11.1h0Z"/>
  <path class="cls-3" d="M788.05,86.57c37.96-10.77,56.45-4.21,66.33,3.98,20.01,16.59,18.48,51.34,26.22,181.01.81,13.61,2.93,29.33,13.27,44.45,21.03,30.77,59.62,34.49,59.62,34.49,0,0,.01.74.03,1.91.61.25.96.39.96.39l-.33,18.24s-71.11,6.85-72.88,78.94c-3.33,135.71-18.61,165.37-38.2,177.32-2.81,1.71-6.42,3.39-26.22,5.65-30.48,3.48-75.28,5.59-132.34-2.32"/>
  <rect class="cls-4" x="240.68" y="137.88" width="546.22" height="287.25" rx="36.04" ry="36.04"/>
  <path class="cls-6" d="M604.13,473.88c-21.68-6.67-53.51-13.83-92.36-13.57-36.88.24-67.21,7.08-88.3,13.57,10.61-3.73,17.55-13.92,17.06-24.88-.45-10.17-7.23-19.19-17.06-22.62h180.66c-9.9,3.48-16.66,12.67-16.96,22.99-.32,10.86,6.55,20.83,16.96,24.5Z"/>
  <polygon class="cls-5" points="718.47 546.8 270.83 546.8 321.76 490.66 756.76 492.15 718.47 546.8"/>
  <g class="cls-2">
    <path class="cls-1" d="M435.24,195.51c18.19,0,33.06,14.88,33.06,32.83v45.82c0,17.95-14.88,32.83-33.06,32.83l-105.1.24-.71-.24v58.34h-31.18v-169.81h136.98ZM436.9,228.33c0-.94-.71-1.65-1.65-1.65h-104.15c-.94,0-1.65.71-1.65,1.65v45.82c0,.94.71,1.65,1.65,1.65h104.15c.94,0,1.65-.71,1.65-1.65v-45.82Z"/>
    <path class="cls-1" d="M741.08,195.27l-61.88,170.05h-24.56l-44.17-120.69c-14.41,39.68-29.99,81.24-44.17,120.69h-24.33l-61.88-170.05h33.06l41.09,112.18,41.09-112.18h30.47l41.09,112.18,41.09-112.18h33.06Z"/>
  </g>
</svg>